<?xml version="1.0" encoding="UTF-8"?>
<svg width="135px" height="40px" viewBox="0 0 135 40" version="1.1" xmlns="http://www.w3.org/2000/svg" xmlns:xlink="http://www.w3.org/1999/xlink">
    <!-- Generator: Sketch 52.4 (67378) - http://www.bohemiancoding.com/sketch -->
    <title>Artboard</title>
    <desc>Created with Sketch.</desc>
    <g id="Artboard" stroke="none" stroke-width="1" fill="none" fill-rule="evenodd">
        <g id="app_store">
            <path d="M134.8,36.1 C134.8,38.2 133.1,40 130.9,40 L4.1,40 C2,40 0.2,38.3 0.2,36.1 L0.2,3.9 C0.2,1.7 2,0 4.1,0 L130.9,0 C133,0 134.8,1.7 134.8,3.9 L134.8,36.1 Z" id="Path" fill="#FFFFFF"></path>
            <g id="Group" transform="translate(12.000000, 6.000000)" fill="#000000">
                <path d="M17.8,13.8 C17.8,10.5 20.5,9 20.6,8.9 C19.1,6.7 16.7,6.4 15.9,6.3 C13.9,6.1 12,7.5 11,7.5 C10,7.5 8.4,6.3 6.7,6.4 C4.5,6.4 2.5,7.7 1.4,9.6 C-0.9,13.6 0.8,19.4 3,22.6 C4.1,24.2 5.4,25.9 7.1,25.9 C8.7,25.8 9.4,24.9 11.3,24.9 C13.3,24.9 13.8,25.9 15.6,25.9 C17.4,25.9 18.5,24.3 19.5,22.7 C20.8,20.9 21.3,19.1 21.3,19 C21.2,19 17.8,17.7 17.8,13.8 Z" id="Path"></path>
                <path d="M14.5,4.2 C15.4,3.1 16,1.6 15.8,0.1 C14.6,0.1 13,1 12.1,2 C11.3,3 10.6,4.5 10.7,6 C12.1,6.1 13.6,5.3 14.5,4.2 Z" id="Path"></path>
            </g>
            <g id="Group" transform="translate(42.000000, 18.000000)" fill="#000000">
                <path d="M11.5,13.6 L9.2,13.6 L7.9,9.6 L3.5,9.6 L2.3,13.6 L0.1,13.6 L4.4,0.1 L7.1,0.1 L11.5,13.6 Z M7.6,8 L6.5,4.5 C6.4,4.1 6.2,3.3 5.8,2 C5.7,2.6 5.5,3.4 5.2,4.5 L4,8 L7.6,8 Z" id="Shape" fill-rule="nonzero"></path>
                <path d="M22.7,8.7 C22.7,10.3 22.3,11.7 21.4,12.6 C20.6,13.5 19.6,13.9 18.4,13.9 C17.1,13.9 16.2,13.4 15.6,12.5 L15.6,17.6 L13.4,17.6 L13.4,7.1 C13.4,6.1 13.4,5 13.3,3.9 L15.2,3.9 L15.3,5.4 C16,4.2 17.1,3.7 18.6,3.7 C19.7,3.7 20.7,4.2 21.5,5.1 C22.3,6 22.7,7.2 22.7,8.7 Z M20.5,8.7 C20.5,7.8 20.3,7 19.9,6.4 C19.4,5.8 18.8,5.4 18,5.4 C17.5,5.4 17,5.6 16.6,5.9 C16.2,6.3 15.9,6.7 15.8,7.3 C15.7,7.6 15.7,7.8 15.7,8 L15.7,9.6 C15.7,10.3 15.9,10.9 16.3,11.4 C16.7,11.9 17.3,12.1 18,12.1 C18.8,12.1 19.4,11.8 19.9,11.2 C20.2,10.6 20.5,9.8 20.5,8.7 Z" id="Shape" fill-rule="nonzero"></path>
                <path d="M33.8,8.7 C33.8,10.3 33.4,11.7 32.5,12.6 C31.7,13.5 30.7,13.9 29.5,13.9 C28.2,13.9 27.3,13.4 26.7,12.5 L26.7,17.6 L24.5,17.6 L24.5,7.1 C24.5,6.1 24.5,5 24.4,3.9 L26.3,3.9 L26.4,5.4 C27.1,4.2 28.2,3.7 29.7,3.7 C30.8,3.7 31.8,4.2 32.6,5.1 C33.4,6 33.8,7.2 33.8,8.7 Z M31.6,8.7 C31.6,7.8 31.4,7 31,6.4 C30.5,5.8 29.9,5.4 29.1,5.4 C28.6,5.4 28.1,5.6 27.7,5.9 C27.3,6.3 27,6.7 26.9,7.3 C26.8,7.6 26.8,7.8 26.8,8 L26.8,9.6 C26.8,10.3 27,10.9 27.4,11.4 C27.8,11.9 28.4,12.1 29.1,12.1 C29.9,12.1 30.5,11.8 31,11.2 C31.4,10.6 31.6,9.8 31.6,8.7 Z" id="Shape" fill-rule="nonzero"></path>
                <path d="M46.3,9.9 C46.3,11 45.9,12 45.1,12.7 C44.2,13.5 43,13.9 41.4,13.9 C40,13.9 38.8,13.6 37.9,13.1 L38.4,11.3 C39.3,11.9 40.4,12.2 41.5,12.2 C42.3,12.2 42.9,12 43.4,11.7 C43.9,11.3 44.1,10.8 44.1,10.2 C44.1,9.7 43.9,9.2 43.5,8.8 C43.1,8.4 42.5,8.1 41.6,7.8 C39.2,6.9 38.1,5.6 38.1,3.9 C38.1,2.8 38.5,1.9 39.3,1.2 C40.1,0.5 41.2,0.1 42.6,0.1 C43.8,0.1 44.8,0.3 45.7,0.7 L45.2,2.5 C44.4,2.1 43.6,1.9 42.6,1.9 C41.8,1.9 41.2,2.1 40.8,2.5 C40.4,2.8 40.3,3.2 40.3,3.7 C40.3,4.2 40.5,4.7 40.9,5 C41.3,5.3 41.9,5.7 42.9,6 C44.1,6.5 44.9,7 45.5,7.6 C46,8.2 46.3,8.9 46.3,9.9 Z" id="Path"></path>
                <path d="M53.4,5.6 L51,5.6 L51,10.3 C51,11.5 51.4,12.1 52.3,12.1 C52.7,12.1 53,12.1 53.3,12 L53.4,13.6 C53,13.8 52.4,13.8 51.7,13.8 C50.8,13.8 50.2,13.5 49.7,13 C49.2,12.5 49,11.6 49,10.4 L49,5.5 L47.6,5.5 L47.6,3.9 L49,3.9 L49,2.1 L51.1,1.5 L51.1,3.9 L53.5,3.9 C53.4,3.9 53.4,5.6 53.4,5.6 Z" id="Path"></path>
                <path d="M64.1,8.7 C64.1,10.2 63.7,11.4 62.8,12.4 C61.9,13.4 60.7,13.9 59.2,13.9 C57.8,13.9 56.6,13.4 55.8,12.5 C55,11.6 54.5,10.4 54.5,8.9 C54.5,7.4 54.9,6.2 55.8,5.2 C56.7,4.2 57.8,3.8 59.3,3.8 C60.7,3.8 61.9,4.3 62.7,5.2 C63.7,6.1 64.1,7.3 64.1,8.7 Z M61.9,8.8 C61.9,7.9 61.7,7.1 61.3,6.5 C60.8,5.7 60.2,5.3 59.4,5.3 C58.5,5.3 57.9,5.7 57.4,6.5 C57,7.1 56.8,7.9 56.8,8.8 C56.8,9.7 57,10.5 57.4,11.1 C57.9,11.9 58.5,12.3 59.4,12.3 C60.2,12.3 60.9,11.9 61.3,11.1 C61.7,10.4 61.9,9.7 61.9,8.8 Z" id="Shape" fill-rule="nonzero"></path>
                <path d="M71.1,5.8 C70.9,5.8 70.7,5.7 70.4,5.7 C69.6,5.7 69.1,6 68.6,6.6 C68.2,7.1 68.1,7.7 68.1,8.5 L68.1,13.6 L66,13.6 L66,7 C66,5.9 66,4.9 65.9,3.9 L67.8,3.9 L67.9,5.8 L68,5.8 C68.2,5.2 68.6,4.6 69.1,4.3 C69.6,4 70.1,3.8 70.7,3.8 C70.9,3.8 71.1,3.8 71.2,3.8 C71.1,3.8 71.1,5.8 71.1,5.8 Z" id="Path"></path>
                <path d="M80.8,8.3 C80.8,8.7 80.8,9 80.7,9.3 L74.2,9.3 C74.2,10.3 74.5,11 75.1,11.5 C75.6,12 76.3,12.2 77.2,12.2 C78.2,12.2 79,12 79.8,11.7 L80.1,13.2 C79.2,13.6 78.1,13.8 76.8,13.8 C75.3,13.8 74.1,13.4 73.3,12.5 C72.4,11.6 72,10.4 72,8.9 C72,7.4 72.4,6.2 73.2,5.2 C74,4.2 75.2,3.6 76.6,3.6 C78,3.6 79.1,4.1 79.8,5.2 C80.5,6.1 80.8,7.1 80.8,8.3 Z M78.7,7.8 C78.7,7.2 78.6,6.6 78.3,6.1 C77.9,5.5 77.4,5.2 76.6,5.2 C75.9,5.2 75.3,5.5 74.9,6.1 C74.5,6.6 74.3,7.1 74.3,7.8 L78.7,7.8 Z" id="Shape" fill-rule="nonzero"></path>
            </g>
            <g id="Group" transform="translate(43.000000, 6.000000)" fill="#000000">
                <path d="M5.9,3.9 C5.9,5.1 5.5,6 4.8,6.6 C4.1,7.2 3.2,7.4 2,7.4 C1.4,7.4 0.9,7.4 0.5,7.3 L0.5,0.8 C1.1,0.7 1.7,0.7 2.3,0.7 C3.5,0.7 4.3,1 4.9,1.5 C5.6,2 5.9,2.8 5.9,3.9 Z M4.8,3.9 C4.8,3.1 4.6,2.5 4.2,2.1 C3.8,1.7 3.2,1.5 2.4,1.5 C2.1,1.5 1.8,1.5 1.5,1.6 L1.5,6.5 C1.6,6.5 1.9,6.5 2.2,6.5 C3,6.5 3.6,6.3 4.1,5.8 C4.6,5.5 4.8,4.8 4.8,3.9 Z" id="Shape" fill-rule="nonzero"></path>
                <path d="M11.8,4.9 C11.8,5.6 11.6,6.2 11.2,6.7 C10.8,7.2 10.2,7.4 9.5,7.4 C8.8,7.4 8.2,7.2 7.8,6.7 C7.4,6.2 7.2,5.7 7.2,4.9 C7.2,4.2 7.4,3.6 7.8,3.1 C8.2,2.6 8.8,2.4 9.5,2.4 C10.2,2.4 10.8,2.6 11.2,3.1 C11.6,3.7 11.8,4.2 11.8,4.9 Z M10.7,5 C10.7,4.6 10.6,4.2 10.4,3.9 C10.2,3.5 9.9,3.3 9.4,3.3 C9,3.3 8.7,3.5 8.4,3.9 C8.2,4.2 8.1,4.6 8.1,5.1 C8.1,5.5 8.2,5.9 8.4,6.2 C8.6,6.6 8.9,6.8 9.4,6.8 C9.8,6.8 10.1,6.6 10.4,6.2 C10.6,5.8 10.7,5.4 10.7,5 Z" id="Shape" fill-rule="nonzero"></path>
                <path d="M19.8,2.6 L18.3,7.4 L17.3,7.4 L16.7,5.3 C16.5,4.8 16.4,4.3 16.3,3.8 C16.2,4.3 16.1,4.8 15.9,5.3 L15.2,7.4 L14.2,7.4 L12.8,2.6 L13.9,2.6 L14.4,4.9 C14.5,5.4 14.6,5.9 14.7,6.4 C14.8,6 14.9,5.5 15.1,4.9 L15.8,2.6 L16.7,2.6 L17.3,4.8 C17.5,5.3 17.6,5.9 17.7,6.4 C17.8,5.9 17.9,5.4 18,4.8 L18.6,2.6 L19.8,2.6 Z" id="Path"></path>
                <path d="M25.2,7.4 L24.1,7.4 L24.1,4.7 C24.1,3.9 23.8,3.4 23.1,3.4 C22.8,3.4 22.5,3.5 22.3,3.7 C22.1,3.9 22,4.2 22,4.5 L22,7.3 L20.9,7.3 L20.9,4 C20.9,3.6 20.9,3.1 20.9,2.6 L22,2.6 L22,3.3 C22.1,3.1 22.3,2.9 22.5,2.7 C22.8,2.5 23.1,2.4 23.5,2.4 C23.9,2.4 24.3,2.5 24.6,2.8 C25,3.2 25.1,3.7 25.1,4.4 L25.1,7.4 L25.2,7.4 Z" id="Path"></path>
                <polygon id="Path" points="28.2 7.4 27.1 7.4 27.1 0.4 28.2 0.4"></polygon>
                <path d="M34.4,4.9 C34.4,5.6 34.2,6.2 33.8,6.7 C33.4,7.2 32.8,7.4 32.1,7.4 C31.4,7.4 30.8,7.2 30.4,6.7 C30,6.2 29.8,5.7 29.8,4.9 C29.8,4.2 30,3.6 30.4,3.1 C30.8,2.6 31.4,2.4 32.1,2.4 C32.8,2.4 33.4,2.6 33.8,3.1 C34.2,3.7 34.4,4.2 34.4,4.9 Z M33.3,5 C33.3,4.6 33.2,4.2 33,3.9 C32.8,3.5 32.5,3.3 32.1,3.3 C31.7,3.3 31.4,3.5 31.1,3.9 C30.9,4.2 30.8,4.6 30.8,5.1 C30.8,5.5 30.9,5.9 31.1,6.2 C31.3,6.6 31.6,6.8 32.1,6.8 C32.5,6.8 32.8,6.6 33,6.2 C33.2,5.8 33.3,5.4 33.3,5 Z" id="Shape" fill-rule="nonzero"></path>
                <path d="M39.5,7.4 L38.5,7.4 L38.4,6.9 C38.1,7.3 37.6,7.6 37,7.6 C36.6,7.6 36.2,7.5 35.9,7.2 C35.7,6.9 35.5,6.6 35.5,6.2 C35.5,5.6 35.7,5.2 36.2,4.9 C36.7,4.6 37.4,4.4 38.3,4.4 L38.3,4.3 C38.3,3.7 38,3.4 37.3,3.4 C36.8,3.4 36.4,3.5 36.1,3.8 L36,2.9 C36.4,2.6 37,2.5 37.6,2.5 C38.8,2.5 39.5,3.2 39.5,4.5 L39.5,6.3 C39.5,6.7 39.5,7.1 39.5,7.4 Z M38.4,5.7 L38.4,5 C37.2,5 36.6,5.3 36.6,6 C36.6,6.2 36.7,6.4 36.8,6.6 C36.9,6.7 37.1,6.8 37.3,6.8 C37.5,6.8 37.7,6.7 37.9,6.6 C38.1,6.5 38.2,6.3 38.3,6 C38.4,5.9 38.4,5.8 38.4,5.7 Z" id="Shape" fill-rule="nonzero"></path>
                <path d="M45.5,7.4 L44.6,7.4 L44.6,6.6 C44.3,7.2 43.8,7.5 43.1,7.5 C42.5,7.5 42,7.3 41.7,6.8 C41.3,6.3 41.1,5.8 41.1,5 C41.1,4.2 41.3,3.6 41.7,3.1 C42.1,2.7 42.6,2.4 43.2,2.4 C43.8,2.4 44.3,2.6 44.5,3 L44.5,0.4 L45.6,0.4 L45.6,6.1 C45.5,6.5 45.5,7 45.5,7.4 Z M44.4,5.4 L44.4,4.6 C44.4,4.5 44.4,4.4 44.4,4.3 C44.4,4 44.2,3.8 44,3.6 C43.8,3.4 43.6,3.3 43.3,3.3 C42.9,3.3 42.6,3.5 42.4,3.8 C42.2,4.1 42.1,4.5 42.1,5 C42.1,5.5 42.2,5.9 42.4,6.1 C42.6,6.4 42.9,6.6 43.3,6.6 C43.6,6.6 43.9,6.5 44.1,6.2 C44.3,6 44.4,5.7 44.4,5.4 Z" id="Shape" fill-rule="nonzero"></path>
                <path d="M54.6,4.9 C54.6,5.6 54.4,6.2 54,6.7 C53.6,7.2 53,7.4 52.3,7.4 C51.6,7.4 51,7.2 50.6,6.7 C50.2,6.2 50,5.7 50,4.9 C50,4.2 50.2,3.6 50.6,3.1 C51,2.6 51.6,2.4 52.3,2.4 C53,2.4 53.6,2.6 54,3.1 C54.4,3.7 54.6,4.2 54.6,4.9 Z M53.5,5 C53.5,4.6 53.4,4.2 53.2,3.9 C53,3.5 52.7,3.3 52.2,3.3 C51.8,3.3 51.5,3.5 51.2,3.9 C51.1,4.2 51,4.5 51,5 C51,5.4 51.1,5.8 51.3,6.1 C51.5,6.5 51.8,6.7 52.3,6.7 C52.7,6.7 53,6.5 53.3,6.1 C53.4,5.8 53.5,5.4 53.5,5 Z" id="Shape" fill-rule="nonzero"></path>
                <path d="M60.3,7.4 L59.2,7.4 L59.2,4.7 C59.2,3.9 58.9,3.4 58.2,3.4 C57.9,3.4 57.6,3.5 57.4,3.7 C57.2,3.9 57.1,4.2 57.1,4.5 L57.1,7.3 L56,7.3 L56,4 C56,3.6 56,3.1 56,2.6 L56.9,2.6 L56.9,3.3 C57,3.1 57.2,2.9 57.4,2.7 C57.7,2.5 58,2.4 58.4,2.4 C58.8,2.4 59.2,2.5 59.5,2.8 C59.9,3.2 60,3.7 60,4.4 L60,7.4 L60.3,7.4 Z" id="Path"></path>
                <path d="M67.4,3.4 L66.2,3.4 L66.2,5.7 C66.2,6.3 66.4,6.6 66.8,6.6 C67,6.6 67.1,6.6 67.3,6.6 L67.3,7.4 C67.1,7.5 66.8,7.5 66.5,7.5 C66.1,7.5 65.8,7.4 65.5,7.1 C65.3,6.8 65.1,6.4 65.1,5.8 L65.1,3.4 L64.4,3.4 L64.4,2.6 L65.1,2.6 L65.1,1.7 L66.1,1.4 L66.1,2.6 L67.3,2.6 L67.4,3.4 Z" id="Path"></path>
                <path d="M73,7.4 L72,7.4 L72,4.7 C72,3.8 71.7,3.4 71,3.4 C70.5,3.4 70.2,3.6 70,4.1 C70,4.2 70,4.3 70,4.5 L70,7.4 L68.9,7.4 L68.9,0.4 L70,0.4 L70,3.3 C70.3,2.8 70.8,2.5 71.4,2.5 C71.8,2.5 72.2,2.6 72.5,2.9 C72.9,3.3 73,3.8 73,4.5 C73,4.5 73,7.4 73,7.4 Z" id="Path"></path>
                <path d="M78.8,4.8 C78.8,5 78.8,5.1 78.8,5.3 L75.6,5.3 C75.6,5.8 75.8,6.1 76.1,6.4 C76.4,6.6 76.7,6.7 77.1,6.7 C77.6,6.7 78,6.6 78.4,6.5 L78.6,7.2 C78.1,7.4 77.6,7.5 77,7.5 C76.3,7.5 75.7,7.3 75.3,6.8 C74.9,6.4 74.7,5.8 74.7,5.1 C74.7,4.4 74.9,3.8 75.3,3.3 C75.7,2.8 76.3,2.5 77,2.5 C77.7,2.5 78.2,2.8 78.6,3.3 C78.7,3.7 78.8,4.2 78.8,4.8 Z M77.8,4.5 C77.8,4.2 77.7,3.9 77.6,3.7 C77.4,3.4 77.1,3.3 76.8,3.3 C76.5,3.3 76.2,3.4 76,3.7 C75.8,3.9 75.7,4.2 75.7,4.5 C75.6,4.5 77.8,4.5 77.8,4.5 Z" id="Shape" fill-rule="nonzero"></path>
            </g>
        </g>
    </g>
</svg>