<?xml version="1.0" encoding="UTF-8"?>
<svg width="138px" height="42px" viewBox="0 0 138 42" version="1.1" xmlns="http://www.w3.org/2000/svg" xmlns:xlink="http://www.w3.org/1999/xlink">
    <!-- Generator: Sketch 52.4 (67378) - http://www.bohemiancoding.com/sketch -->
    <title>Artboard</title>
    <desc>Created with Sketch.</desc>
    <defs>
        <linearGradient x1="91.7229154%" y1="5.31591557%" x2="-70.0336015%" y2="88.0339438%" id="linearGradient-1">
            <stop stop-color="#00A0FF" offset="0%"></stop>
            <stop stop-color="#00A1FF" offset="0.6599999%"></stop>
            <stop stop-color="#00BEFF" offset="26.01%"></stop>
            <stop stop-color="#00D2FF" offset="51.22%"></stop>
            <stop stop-color="#00DFFF" offset="76.04%"></stop>
            <stop stop-color="#00E3FF" offset="100%"></stop>
        </linearGradient>
        <linearGradient x1="107.911836%" y1="50.0177394%" x2="-190.610904%" y2="50.0177394%" id="linearGradient-2">
            <stop stop-color="#FFE000" offset="0%"></stop>
            <stop stop-color="#FFBD00" offset="40.87%"></stop>
            <stop stop-color="#FFA500" offset="77.54%"></stop>
            <stop stop-color="#FF9C00" offset="100%"></stop>
        </linearGradient>
        <linearGradient x1="36.4641827%" y1="53.0352183%" x2="-133.781488%" y2="271.934712%" id="linearGradient-3">
            <stop stop-color="#FF3A44" offset="0%"></stop>
            <stop stop-color="#C31162" offset="100%"></stop>
        </linearGradient>
        <linearGradient x1="-68.1788967%" y1="-87.7256252%" x2="7.84341851%" y2="9.50604058%" id="linearGradient-4">
            <stop stop-color="#32A071" offset="0%"></stop>
            <stop stop-color="#2DA771" offset="6.85%"></stop>
            <stop stop-color="#15CF74" offset="47.62%"></stop>
            <stop stop-color="#06E775" offset="80.09%"></stop>
            <stop stop-color="#00F076" offset="100%"></stop>
        </linearGradient>
    </defs>
    <g id="Artboard" stroke="none" stroke-width="1" fill="none" fill-rule="evenodd">
        <g id="google_play" transform="translate(-1.000000, -1.000000)">
            <g id="g10" transform="translate(69.825238, 21.600250) scale(-1, 1) rotate(-180.000000) translate(-69.825238, -21.600250) translate(0.325238, 0.100250)">
                <g id="g12" transform="translate(0.903113, 0.157297)">
                    <path d="M132.236925,0.123841219 L5.08603557,0.123841219 C2.28871601,0.123841219 0,2.46548316 0,5.32748997 L0,36.5493825 C0,39.4113893 2.28871601,41.7530312 5.08603557,41.7530312 L132.236925,41.7530312 C135.034245,41.7530312 137.32296,39.4113893 137.32296,36.5493825 L137.32296,5.32748997 C137.32296,2.46548316 135.034245,0.123841219 132.236925,0.123841219 Z" id="path14" fill="#FFFFFF"></path>
                    <g id="g18" transform="translate(45.848682, 30.937128) scale(-1, 1) rotate(-180.000000) translate(-45.848682, -30.937128) translate(42.348682, 27.437128)" fill="#000000" stroke="#000000" stroke-width="0.625">
                        <path d="M6.13965284,3.83907778 C6.13965284,4.70596631 5.88905476,5.32517241 5.38785861,5.82053728 C4.76136342,6.43974338 4.13486824,6.68742581 3.13247594,6.68742581 C2.25538267,6.68742581 1.50358845,6.43974338 0.877093263,5.82053728 C0.250598075,5.20133119 0,4.45828388 0,3.59139534 C0,2.72450681 0.250598075,1.9814595 0.877093263,1.36225341 C1.50358845,0.743047313 2.25538268,0.495364875 3.13247594,0.495364875 C3.50837305,0.495364875 4.0095692,0.619206094 4.38546631,0.743047313 C4.76136342,0.866888531 5.13726054,1.11457097 5.38785861,1.36225341 L4.88666246,1.85761828 C4.51076535,1.36225341 3.88427016,1.11457097 3.25777498,1.11457097 C2.63127979,1.11457097 2.13008364,1.36225341 1.62888749,1.73377706 C1.12769134,2.22914194 0.877093263,2.72450681 0.877093263,3.46755413 C0.877093263,4.21060144 1.12769134,4.70596631 1.62888749,5.20133119 C2.13008364,5.69669606 2.63127979,5.82053728 3.25777498,5.82053728 C3.88427016,5.82053728 4.51076535,5.57285484 4.88666246,5.20133119 C5.13726054,4.95364875 5.38785861,4.45828388 5.38785861,3.962919 L3.25777497,3.962919 L3.25777497,3.21987169 L6.13965284,3.21987169 C6.13965284,3.59139534 6.13965284,3.71523656 6.13965284,3.83907778 Z" id="path20"></path>
                    </g>
                    <g id="g22" transform="translate(51.613634, 30.937128) scale(-1, 1) rotate(-180.000000) translate(-51.613634, -30.937128) translate(49.613634, 27.437128)" fill="#000000" stroke="#000000" stroke-width="0.625">
                        <path d="M3.51076535,1.36225341 L0.75418652,1.36225341 L0.75418652,3.21987169 L3.26016727,3.21987169 L3.26016727,3.962919 L0.75418652,3.962919 L0.75418652,5.82053728 L3.51076535,5.82053728 L3.51076535,6.56358459 L0.0023923,6.56358459 L0.0023923,0.619206094 L3.51076535,0.619206094 C3.51076535,0.619206094 3.51076535,1.36225341 3.51076535,1.36225341 Z" id="path24"></path>
                    </g>
                    <g id="g26" transform="translate(56.125596, 30.937128) scale(-1, 1) rotate(-180.000000) translate(-56.125596, -30.937128) translate(53.625596, 27.437128)" fill="#000000" stroke="#000000" stroke-width="0.625">
                        <polygon id="path28" points="2.75657883 6.56358459 2.0047846 6.56358459 2.0047846 1.36225341 0.375897113 1.36225341 0.375897113 0.619206094 4.51076535 0.619206094 4.51076535 1.36225341 2.88187786 1.36225341 2.88187786 6.56358459"></polygon>
                    </g>
                    <g id="g30" transform="translate(61.890548, 30.937128) scale(-1, 1) rotate(-180.000000) translate(-61.890548, -30.937128) translate(60.890548, 27.437128)" fill="#000000" stroke="#000000" stroke-width="0.625">
                        <polygon id="path32" points="0.12769134 6.56358459 0.12769134 0.619206094 0.87948556 0.619206094 0.87948556 6.56358459"></polygon>
                    </g>
                    <g id="g34" transform="translate(64.896528, 30.937128) scale(-1, 1) rotate(-180.000000) translate(-64.896528, -30.937128) translate(62.396528, 27.437128)" fill="#000000" stroke="#000000" stroke-width="0.625">
                        <path d="M2.88187786,6.56358459 L2.13008364,6.56358459 L2.13008364,1.36225341 L0.50119615,1.36225341 L0.50119615,0.619206094 L4.63606439,0.619206094 L4.63606439,1.36225341 L3.0071769,1.36225341 C2.88187786,1.36225341 2.88187786,6.56358459 2.88187786,6.56358459 Z" id="path36"></path>
                    </g>
                    <g id="g38" transform="translate(72.661480, 30.937128) scale(-1, 1) rotate(-180.000000) translate(-72.661480, -30.937128) translate(68.661480, 27.437128)" fill="#000000" fill-rule="nonzero" stroke="#000000" stroke-width="0.625">
                        <path d="M6.13965284,5.82053728 C5.51315765,6.43974338 4.76136343,6.68742581 3.88427016,6.68742581 C3.0071769,6.68742581 2.25538268,6.43974338 1.62888749,5.82053728 C1.0023923,5.20133119 0.751794225,4.45828387 0.751794225,3.59139534 C0.751794225,2.72450681 1.0023923,1.9814595 1.62888749,1.36225341 C2.25538268,0.743047312 3.0071769,0.495364875 3.88427016,0.495364875 C4.76136343,0.495364875 5.51315765,0.743047312 6.13965284,1.36225341 C6.76614803,1.9814595 7.0167461,2.72450681 7.0167461,3.59139534 C7.0167461,4.45828388 6.76614803,5.20133119 6.13965284,5.82053728 Z M2.25538267,5.32517241 C2.75657883,5.82053728 3.25777497,5.9443785 3.88427016,5.9443785 C4.51076535,5.9443785 5.0119615,5.69669606 5.51315765,5.32517241 C6.0143538,4.82980753 6.13965284,4.33444266 6.13965284,3.59139534 C6.13965284,2.84834803 5.88905476,2.35298316 5.51315765,1.85761828 C5.0119615,1.36225341 4.51076535,1.23841219 3.88427016,1.23841219 C3.25777497,1.23841219 2.75657882,1.48609462 2.25538267,1.85761828 C1.75418652,2.35298316 1.62888749,2.84834803 1.62888749,3.59139534 C1.62888749,4.33444266 1.87948556,4.82980753 2.25538267,5.32517241 Z" id="path40"></path>
                    </g>
                    <g id="g42" transform="translate(79.179423, 30.937128) scale(-1, 1) rotate(-180.000000) translate(-79.179423, -30.937128) translate(76.179423, 27.437128)" fill="#000000" stroke="#000000" stroke-width="0.625">
                        <path d="M0.626495187,6.56358459 L0.626495187,0.619206094 L1.62888749,0.619206094 L4.51076535,5.20133119 L4.51076535,4.08676022 L4.51076535,0.619206094 L5.26255957,0.619206094 L5.26255957,6.56358459 L4.51076535,6.56358459 L1.50358845,1.73377706 L1.50358845,2.84834803 L1.50358845,6.56358459 C1.37828941,6.56358459 0.626495187,6.56358459 0.626495187,6.56358459 Z" id="path44"></path>
                    </g>
                    <path d="M69.2879754,19.2046592 C66.9072937,19.2046592 65.0278082,17.4708821 65.0278082,14.9940577 C65.0278082,12.5172333 66.9072937,10.7834563 69.2879754,10.7834563 C71.6686571,10.7834563 73.5481427,12.5172333 73.5481427,14.9940577 C73.5481427,17.4708821 71.6686571,19.2046592 69.2879754,19.2046592 Z M69.2879754,12.3933921 C68.0349851,12.3933921 66.9072937,13.5079631 66.9072937,14.9940577 C66.9072937,16.4801523 68.0349851,17.5947233 69.2879754,17.5947233 C70.5409658,17.5947233 71.6686572,16.6039936 71.6686572,14.9940577 C71.6686572,13.5079631 70.5409658,12.3933921 69.2879754,12.3933921 Z M60.0158467,19.2046592 C57.6351649,19.2046592 55.7556794,17.4708821 55.7556794,14.9940577 C55.7556794,12.5172333 57.6351649,10.7834563 60.0158467,10.7834563 C62.3965284,10.7834563 64.2760139,12.5172333 64.2760139,14.9940577 C64.2760139,17.4708821 62.2712293,19.2046592 60.0158467,19.2046592 Z M60.0158467,12.3933921 C58.7628563,12.3933921 57.6351649,13.5079631 57.6351649,14.9940577 C57.6351649,16.4801523 58.7628563,17.5947233 60.0158467,17.5947233 C61.268837,17.5947233 62.3965284,16.6039936 62.3965284,14.9940577 C62.3965284,13.5079631 61.268837,12.3933921 60.0158467,12.3933921 Z M48.8642323,17.966247 L48.8642323,16.2324699 L53.2496986,16.2324699 C53.1243996,15.2417402 52.7485025,14.4986928 52.2473063,14.003328 C51.6208111,13.3841219 50.6184188,12.6410746 48.8642323,12.6410746 C46.2329525,12.6410746 44.1028689,14.7463753 44.1028689,17.3470409 C44.1028689,19.9477065 46.2329525,22.0530072 48.8642323,22.0530072 C50.2425217,22.0530072 51.3702131,21.5576423 52.1220073,20.814595 L53.3749977,22.0530072 C52.2473063,23.0437369 50.8690169,23.9106255 48.8642323,23.9106255 C45.2305602,23.9106255 42.0980843,20.9384362 42.0980843,17.3470409 C42.0980843,13.7556455 45.1052612,10.7834563 48.8642323,10.7834563 C50.8690169,10.7834563 52.3726054,11.4026624 53.5002967,12.6410746 C54.7532871,13.8794867 55.0038852,15.4894226 55.0038852,16.851676 C55.0038852,17.2231997 55.0038852,17.5947233 54.8785861,17.966247 C55.0038852,17.966247 48.8642323,17.966247 48.8642323,17.966247 Z M94.2224839,16.4801523 C93.8465868,17.4708821 92.8441945,19.2046592 90.5888118,19.2046592 C88.3334291,19.2046592 86.5792426,17.4708821 86.5792426,14.9940577 C86.5792426,12.6410746 88.3334291,10.7834563 90.8394099,10.7834563 C92.8441945,10.7834563 93.9718858,12.0218685 94.3477829,12.6410746 L92.8441945,13.6318043 C92.3429983,12.888757 91.7165031,12.5172333 90.7141108,12.5172333 C89.7117185,12.5172333 89.0852234,12.888757 88.7093262,13.7556455 L94.473082,16.1086287 C94.473082,15.9847875 94.2224839,16.4801523 94.2224839,16.4801523 Z M88.4587282,15.1178989 C88.4587282,16.7278348 89.7117185,17.5947233 90.7141108,17.5947233 C91.4659051,17.5947233 92.0924003,17.2231997 92.3429983,16.7278348 C92.2176993,16.7278348 88.4587282,15.1178989 88.4587282,15.1178989 Z M83.8226638,11.0311387 L85.7021493,11.0311387 L85.7021493,23.4152606 L83.8226638,23.4152606 L83.8226638,11.0311387 Z M80.8154869,18.2139294 C80.3142907,18.7092943 79.5624965,19.2046592 78.5601042,19.2046592 C76.4300206,19.2046592 74.425236,17.3470409 74.425236,14.9940577 C74.425236,12.6410746 76.4300206,10.7834563 78.5601042,10.7834563 C79.5624965,10.7834563 80.4395898,11.2788212 80.8154869,11.774186 L80.9407859,11.774186 L80.9407859,11.1549799 C80.9407859,9.54504409 80.0636927,8.67815556 78.6854032,8.67815556 C77.5577119,8.67815556 76.8059177,9.54504409 76.5553196,10.1642502 L74.9264321,9.54504409 C75.4276283,8.43047312 76.6806186,7.06821972 78.6854032,7.06821972 C80.9407859,7.06821972 82.6949724,8.30663191 82.6949724,11.4026624 L82.6949724,18.9569767 L80.9407859,18.9569767 L80.9407859,18.2139294 L80.8154869,18.2139294 Z M78.5601042,12.3933921 C77.3071138,12.3933921 76.1794225,13.5079631 76.1794225,14.9940577 C76.1794225,16.4801523 77.3071138,17.5947233 78.5601042,17.5947233 C79.8130946,17.5947233 80.8154869,16.4801523 80.8154869,14.9940577 C80.9407859,13.5079631 79.9383936,12.3933921 78.5601042,12.3933921 Z M102.993417,23.4152606 L98.4826512,23.4152606 L98.4826512,11.0311387 L100.362137,11.0311387 L100.362137,15.737105 L102.993417,15.737105 C105.1235,15.737105 107.128285,17.2231997 107.128285,19.5761828 C107.128285,21.929166 105.1235,23.4152606 102.993417,23.4152606 Z M103.118716,17.4708821 L100.487436,17.4708821 L100.487436,21.6814835 L103.118716,21.6814835 C104.497005,21.6814835 105.374098,20.5669126 105.374098,19.5761828 C105.248799,18.5854531 104.497005,17.4708821 103.118716,17.4708821 Z M114.646227,19.2046592 C113.267938,19.2046592 111.889648,18.5854531 111.263153,17.3470409 L112.89204,16.6039936 C113.267938,17.3470409 113.894433,17.4708821 114.646227,17.4708821 C115.648619,17.4708821 116.651012,16.851676 116.651012,15.8609462 C116.275114,16.1086287 115.648619,16.3563111 114.646227,16.3563111 C112.89204,16.3563111 111.012555,15.3655814 111.012555,13.6318043 C111.012555,12.0218685 112.516143,10.9072975 114.145031,10.9072975 C115.398021,10.9072975 116.149815,11.5265036 116.525713,12.1457097 L116.651012,12.1457097 L116.651012,11.1549799 L118.405198,11.1549799 L118.405198,15.8609463 C118.405198,17.966247 116.776311,19.2046592 114.646227,19.2046592 Z M114.395629,12.3933921 C113.769134,12.3933921 112.89204,12.6410746 112.89204,13.3841219 C112.89204,14.3748516 113.894433,14.7463753 114.896825,14.7463753 C115.773918,14.7463753 116.149815,14.6225341 116.651012,14.3748516 C116.525713,13.2602807 115.52332,12.3933921 114.395629,12.3933921 Z M125.046047,18.9569767 L122.915963,13.6318043 L122.790664,13.6318043 L120.535282,18.9569767 L118.530497,18.9569767 L121.913571,11.4026624 L120.034086,7.19206094 L122.03887,7.19206094 L127.176131,18.8331355 C127.176131,18.9569767 125.046047,18.9569767 125.046047,18.9569767 Z M108.130677,11.0311387 L110.010163,11.0311387 L110.010163,23.4152606 L108.130677,23.4152606 L108.130677,11.0311387 Z" id="path46" fill="#000000" fill-rule="nonzero"></path>
                    <g id="g48" transform="translate(10.770933, 8.430473)" fill="url(#linearGradient-1)">
                        <path d="M0.62888749,24.892085 C0.37828941,24.6444025 0.12769134,24.1490377 0.12769134,23.5298316 L0.12769134,1.48609462 C0.12769134,0.866888531 0.25299037,0.371523656 0.62888749,0.123841219 L0.75418653,0 L13.1587912,12.2602807 L13.1587912,12.5079631 L0.62888749,24.892085 Z" id="path64"></path>
                    </g>
                    <g id="g66" transform="translate(23.553827, 15.860946)" fill="url(#linearGradient-2)">
                        <path d="M4.51076535,0.866888531 L0.375897113,4.95364875 L0.375897113,5.20133119 L4.51076535,9.28809141 L4.63606439,9.28809141 L9.52272685,6.56358459 C10.9010163,5.82053728 10.9010163,4.45828388 9.52272685,3.71523656 L4.51076535,0.866888531 C4.63606439,0.866888531 4.51076535,0.866888531 4.51076535,0.866888531 Z" id="path78"></path>
                    </g>
                    <g id="g80" transform="translate(11.023923, 7.192061)" fill="url(#linearGradient-3)">
                        <path d="M17.1659681,9.53577384 L12.9058009,13.7463753 L0.375897113,1.36225341 C0.877093262,0.866888531 1.62888749,0.866888531 2.50598075,1.36225341 L17.1659681,9.53577384" id="path88"></path>
                    </g>
                    <g id="g90" transform="translate(11.023923, 20.814595)" fill="url(#linearGradient-4)">
                        <path d="M17.1659681,4.33444266 L2.50598075,12.5079631 C1.62888749,13.003328 0.877093262,12.8794868 0.375897113,12.3841219 L12.9058009,0 L17.1659681,4.33444266 Z" id="path104"></path>
                    </g>
                </g>
            </g>
        </g>
    </g>
</svg>